<?xml version="1.0" encoding="utf-8"?>
<!-- Generator: Adobe Illustrator 24.1.0, SVG Export Plug-In . SVG Version: 6.00 Build 0)  -->
<svg version="1.1" id="Layer_1" xmlns="http://www.w3.org/2000/svg" xmlns:xlink="http://www.w3.org/1999/xlink" x="0px" y="0px"
	 viewBox="0 0 28 24" style="enable-background:new 0 0 28 24;" xml:space="preserve">
<style type="text/css">
	.st0{fill:#0F60FF;}
	.st1{fill:#FFFFFF;}
</style>
<path class="st0" d="M8,0h12c4.4,0,8,3.6,8,8v8c0,4.4-3.6,8-8,8H8c-4.4,0-8-3.6-8-8V8C0,3.6,3.6,0,8,0z"/>
<path class="st1" d="M15.4,4H22v4.4h-1.2c-2.1,0-3.6-0.3-4.4-1c-0.6-0.5-1-1.4-1-2.7V4z M7,10.4C7,6.9,9.9,4,13.4,4v6.4h1.8
	c1.7,0,3,1.3,3,3v0.1h-4.8v0.1c0,3.5-2.9,6.4-6.4,6.4V10.4z M15.4,18.9c0-1.6,0.9-2.7,2.8-3.3c0.7-0.2,1.7-0.3,2.8-0.3H22V20h-6.6
	V18.9z"/>
<text transform="matrix(1 0 0 1 -380 -145)" style="font-family:'MyriadPro-Regular'; font-size:12px;">Lorem ipsum</text>
</svg>
